<svg xmlns="http://www.w3.org/2000/svg" viewBox="0 0 465.41 411.68"><defs><style>.a{fill:#fafafa;}.b{fill:#e0e0e0;}.c{fill:#ebebeb;}.d{fill:#f5f5f5;}.e{fill:#53f;}.f{fill:#263238;}.g{fill:#455a64;}.h{fill:#ffbe9d;}.i{fill:#eb996e;}.j{opacity:0.3;}.k{fill:#fff;}</style></defs><title>call</title><rect class="a" x="24.52" y="57.65" width="173.59" height="155.3"/><path class="b" d="M203.67,218.15s0-1,0-2.88,0-4.69,0-8.32c0-7.29-.06-17.95-.1-31.53,0-27.14-.12-65.91-.2-112.57l.39.39L30.1,63.31h0l.46-.46c0,56.5,0,109.67-.06,155.3l-.41-.41,125.55.21,35.41.11,9.37,0,2.42,0,.83,0-.79,0-2.37,0-9.29,0-35.32.11-125.82.21h-.41v-.41c0-45.63,0-98.8-.06-155.3v-.46h.48l173.57.07h.39v.39c-.08,46.77-.15,85.63-.2,112.82,0,13.54-.08,24.17-.1,31.44,0,3.6,0,6.36,0,8.25S203.67,218.15,203.67,218.15Z" transform="translate(-5.56 -5.19)"/><ellipse class="b" cx="70.68" cy="85.25" rx="20.41" ry="0.46"/><path class="b" d="M170.19,102.1c0,.26-25.1.46-56.06.46s-56.06-.21-56.06-.46,25.1-.46,56.06-.46S170.19,101.84,170.19,102.1Z" transform="translate(-5.56 -5.19)"/><rect class="b" x="50.57" y="116.66" width="7.31" height="7.31"/><rect class="b" x="68.57" y="116.66" width="7.31" height="7.31"/><rect class="b" x="86.9" y="116.33" width="7.31" height="7.31"/><rect class="b" x="104.57" y="116.66" width="7.31" height="7.31"/><rect class="b" x="122.58" y="116.66" width="7.31" height="7.31"/><rect class="b" x="140.58" y="116.66" width="7.31" height="7.31"/><rect class="c" x="158.58" y="116.66" width="7.31" height="7.31"/><rect class="c" x="50.57" y="132.21" width="7.31" height="7.31"/><rect class="b" x="68.57" y="132.21" width="7.31" height="7.31"/><rect class="c" x="86.57" y="132.21" width="7.31" height="7.31"/><rect class="b" x="104.57" y="132.21" width="7.31" height="7.31"/><rect class="b" x="122.58" y="132.21" width="7.31" height="7.31"/><rect class="b" x="140.91" y="131.88" width="7.31" height="7.31"/><rect class="b" x="158.58" y="132.21" width="7.31" height="7.31"/><rect class="b" x="50.57" y="147.76" width="7.31" height="7.31"/><rect class="b" x="68.9" y="147.42" width="7.31" height="7.31"/><rect class="b" x="86.57" y="147.76" width="7.31" height="7.31"/><rect class="c" x="104.57" y="147.76" width="7.31" height="7.31"/><rect class="b" x="122.58" y="147.76" width="7.31" height="7.31"/><rect class="b" x="140.58" y="147.76" width="7.31" height="7.31"/><rect class="b" x="158.58" y="147.76" width="7.31" height="7.31"/><rect class="b" x="50.57" y="163.3" width="7.31" height="7.31"/><rect class="b" x="68.57" y="163.3" width="7.31" height="7.31"/><rect class="b" x="86.57" y="163.3" width="7.31" height="7.31"/><rect class="b" x="104.91" y="162.97" width="7.31" height="7.31"/><rect class="b" x="122.58" y="163.3" width="7.31" height="7.31"/><rect class="c" x="140.58" y="163.3" width="7.31" height="7.31"/><rect class="b" x="158.58" y="163.3" width="7.31" height="7.31"/><rect class="b" x="50.57" y="178.85" width="7.31" height="7.31"/><rect class="c" x="68.57" y="178.85" width="7.31" height="7.31"/><rect class="b" x="86.57" y="178.85" width="7.31" height="7.31"/><rect class="b" x="104.57" y="178.85" width="7.31" height="7.31"/><rect class="b" x="122.58" y="178.85" width="7.31" height="7.31"/><rect class="b" x="140.91" y="178.52" width="7.31" height="7.31"/><rect class="b" x="158.58" y="178.85" width="7.31" height="7.31"/><rect class="b" x="388.69" y="25.92" width="11.16" height="55.51" transform="translate(-5.84 -3.07) rotate(-0.31)"/><rect class="c" x="291.98" y="26.11" width="28.89" height="30.64" transform="translate(-5.78 -3.55) rotate(-0.31)"/><rect class="d" x="320.73" y="25.95" width="28.89" height="30.64" transform="translate(-5.78 -3.39) rotate(-0.31)"/><path class="b" d="M291.94,34.65c19.2.16,38.44,0,57.64-.27a.31.31,0,0,0,0-.61c-19.2-.11-38.44,0-57.64.35a.26.26,0,0,0,0,.53Z" transform="translate(-5.56 -5.19)"/><rect class="c" x="273.95" y="56.31" width="52.49" height="24.97" transform="translate(-5.93 -3.58) rotate(-0.31)"/><rect class="d" x="326.19" y="56.03" width="52.49" height="24.97" transform="translate(-5.92 -3.3) rotate(-0.31)"/><path class="b" d="M273.92,63.39c34.87.39,69.86,0,104.72-.52a.31.31,0,0,0,0-.61c-34.87-.18-69.86-.16-104.72.6a.26.26,0,0,0,0,.53Z" transform="translate(-5.56 -5.19)"/><rect class="b" x="248.73" y="76.23" width="203.35" height="8.95"/><rect class="b" x="282.02" y="80.53" width="8.25" height="30.53"/><rect class="b" x="405.25" y="80.53" width="8.26" height="30.53"/><rect class="c" x="399.63" y="5.22" width="11.16" height="76.34" transform="translate(-5.79 -3.02) rotate(-0.31)"/><rect class="d" x="410.84" y="19.45" width="17.33" height="61.87" transform="matrix(1, -0.01, 0.01, 1, -5.83, -2.93)"/><ellipse class="b" cx="413.66" cy="26.13" rx="8.67" ry="0.3"/><ellipse class="b" cx="413.66" cy="23.53" rx="8.67" ry="0.3"/><ellipse class="b" cx="413.66" cy="66.77" rx="8.67" ry="0.3"/><ellipse class="b" cx="413.66" cy="64.17" rx="8.67" ry="0.3"/><ellipse class="b" cx="413.94" cy="44.56" rx="0.3" ry="13.94"/><rect class="c" x="422.52" y="29.4" width="18.87" height="46.7"/><circle class="b" cx="399.28" cy="13.03" r="3.21"/><rect class="b" x="398.28" y="21.85" width="1.98" height="45.42"/><path class="e" d="M63.19,316.83c5.23-2.7,11.4-3.05,17.21-2.09,3.12.52,6.38,1.45,8.5,3.79S91.42,325,89,327c-1.45,1.2-3.48,1.38-5.36,1.36-4.55-.05-9.59-.85-13.23,1.88-2.07,1.56-3.45,4.16-5.93,4.92s-5.16-.68-6.45-2.87a10,10,0,0,1-.73-7.39A11.28,11.28,0,0,1,63.19,316.83Z" transform="translate(-5.56 -5.19)"/><path class="e" d="M51.2,293.69c3.2,4.57,9.42,3.06,12.3.27s4.1-6.83,5.21-10.69c2.54-8.81,5.09-18.05,3.21-27a15,15,0,0,0-3.45-7.35A7.84,7.84,0,0,0,61,246.42c-3.14.83-5.08,3.9-6.49,6.82a64.41,64.41,0,0,0-6.37,27.64c0,4.45.51,9.12,3,12.8" transform="translate(-5.56 -5.19)"/><path class="e" d="M42.42,300.25c3.47-4.12,4.13-10.14,2.59-15.3s-5-9.56-9.06-13.15a48.8,48.8,0,0,0-16.23-9.58,17.31,17.31,0,0,0-7.3-1.24,7.66,7.66,0,0,0-6.13,3.71c-1.71,3.26-.07,7.21,1.7,10.43a123.68,123.68,0,0,0,10.66,16.23c3.2,4.12,6.86,8.18,11.73,10s9.93,1.64,12.51-1.73" transform="translate(-5.56 -5.19)"/><path class="f" d="M51,362.63a10,10,0,0,0,.29-2.08l.55-5.67a81.87,81.87,0,0,1,1.27-8.31,64.16,64.16,0,0,1,3-9.81,36.17,36.17,0,0,1,5-8.88,18.71,18.71,0,0,1,6.33-5.27A17.72,17.72,0,0,1,72.8,321a10,10,0,0,0,2.07-.3,9.73,9.73,0,0,0-2.1,0,16.16,16.16,0,0,0-5.56,1.45,18.68,18.68,0,0,0-6.68,5.31,35.34,35.34,0,0,0-5.19,9.06,60,60,0,0,0-3,10,70.32,70.32,0,0,0-1.11,8.42c-.18,2.41-.25,4.36-.28,5.7A9.74,9.74,0,0,0,51,362.63Z" transform="translate(-5.56 -5.19)"/><path class="f" d="M51.38,358.27a4.11,4.11,0,0,0,.06-1c0-.72,0-1.64,0-2.76,0-2.39,0-5.85.12-10.13.21-8.55.95-17.75,2.37-30.71,1.35-12.19,3.15-26.39,5.06-35.61.41-2.1.82-4,1.21-5.64s.69-3.09,1-4.24l.64-2.68a4.11,4.11,0,0,0,.17-1,4.05,4.05,0,0,0-.33.9l-.8,2.64c-.36,1.15-.72,2.57-1.13,4.22s-.89,3.53-1.33,5.63a312.74,312.74,0,0,0-5.32,33c-1.42,13-2.07,24.83-2.12,33.4-.05,4.28,0,7.75.15,10.15l.17,2.75A4.07,4.07,0,0,0,51.38,358.27Z" transform="translate(-5.56 -5.19)"/><path class="f" d="M51.43,335.45a18.31,18.31,0,0,0,0-2.88c-.11-1.85-.36-4.52-.88-7.8A102.81,102.81,0,0,0,48,313.41,93.09,93.09,0,0,0,43.24,300a71.63,71.63,0,0,0-14-21.73A35.44,35.44,0,0,0,26,275.18c-.5-.43-.95-.85-1.4-1.19l-1.27-.88a18.34,18.34,0,0,0-2.42-1.55c-.14.19,3.43,2.29,7.94,7.09A75.47,75.47,0,0,1,42.46,300.3a106.26,106.26,0,0,1,4.78,13.32,115.57,115.57,0,0,1,2.7,11.25c.59,3.24.94,5.89,1.15,7.72A18.58,18.58,0,0,0,51.43,335.45Z" transform="translate(-5.56 -5.19)"/><polygon class="f" points="23.81 370.52 26.1 401.85 66.35 401.85 68.64 370.52 23.81 370.52"/><rect class="f" x="19.93" y="358.17" width="53.51" height="12.35"/><polygon class="g" points="19.93 400.65 19.93 404.08 22.44 404.08 72.56 404.08 72.56 400.65 19.93 400.65"/><polygon class="g" points="24.91 410.1 22.44 404.08 70.64 404.08 67.76 410.1 24.91 410.1"/><path class="b" d="M73.45,385.95a1.3,1.3,0,0,1-.19.29l-.6.8-2.34,3-.1.13-.1-.14-5.76-8h.33l-5.67,8-.18.25-.2-.24-6.73-8h.39l-.37.46-6,7.54-.2.25-.18-.26-5.67-8,.33,0-7,8-.12.14L33,390l-2.19-3.68-.56-1a1.56,1.56,0,0,1-.17-.35,1.56,1.56,0,0,1,.23.31l.62.94,2.3,3.61-.22,0,6.88-8.06.17-.2.16.22,5.72,8h-.39l6-7.55.37-.46.19-.24.2.24,6.71,8h-.38l5.73-8,.17-.23.16.23,5.64,8.05h-.2l2.44-2.92.65-.76C73.36,386,73.44,385.94,73.45,385.95Z" transform="translate(-5.56 -5.19)"/><ellipse class="g" cx="46.67" cy="370.31" rx="22.52" ry="0.25"/><ellipse class="f" cx="46.75" cy="404.41" rx="24.48" ry="0.25"/><path class="g" d="M346.47,277.92H440a15.13,15.13,0,0,1,15.13,15.13V410.67a0,0,0,0,1,0,0H331.34a0,0,0,0,1,0,0V293.05A15.13,15.13,0,0,1,346.47,277.92Z"/><path class="f" d="M450.27,283.79c.14,0,.26,29.55.26,66s-.12,66-.26,66-.26-29.55-.26-66S450.13,283.79,450.27,283.79Z" transform="translate(-5.56 -5.19)"/><path class="f" d="M389.29,139a105,105,0,0,1,18.81,55.34c.58,13.3-1.21,27.47,5.1,39.2,9.06,16.82,28.65,16.24,34.65,34.38,2.61,7.89-2.2,25.24-3.5,33.45-1.47,9.33,4.23,17.16,2.76,26.48-1.35,8.55-7.75,14.65-15.43,18.63-6.84,3.54-13.16,3.63-20.27.69-13.55-5.61-24.83-11.53-34.49-22.57-13.56-15.5-17.65-37-20-57.43A504,504,0,0,1,360,131.41" transform="translate(-5.56 -5.19)"/><path class="g" d="M418.28,349.07l.44-.11c.29-.07.73-.14,1.28-.3a21.18,21.18,0,0,0,4.68-1.87,20.78,20.78,0,0,0,6.18-5,13,13,0,0,0,2.42-4.29,23.5,23.5,0,0,0,.85-5.5,53.92,53.92,0,0,0-1.3-12.74c-.87-4.54-2.05-9.38-2.34-14.62a30.14,30.14,0,0,1,.57-8,52.25,52.25,0,0,1,2.54-8c1-2.65,2.09-5.32,2.86-8.12a20.83,20.83,0,0,0,.69-8.7,19.67,19.67,0,0,0-3.24-8.08,37.57,37.57,0,0,0-5.67-6.43c-4.13-3.86-8.6-7-12.42-10.62a70.34,70.34,0,0,1-16.18-22.34,68.49,68.49,0,0,1-3.72-10c-.48-1.49-.75-2.93-1.1-4.23l-.7-3.6c-.32-2.18-.55-3.88-.61-5l-.1-1.32c0-.3,0-.45,0-.45s0,.15.07.45l.15,1.31c.1,1.16.36,2.84.71,5l.75,3.58c.36,1.29.64,2.72,1.13,4.2a69.42,69.42,0,0,0,3.78,9.9,70.52,70.52,0,0,0,16.17,22.14c3.8,3.54,8.28,6.72,12.45,10.6a38,38,0,0,1,5.75,6.51,20.16,20.16,0,0,1,3.33,8.3,21.32,21.32,0,0,1-.71,8.91c-.79,2.84-1.87,5.53-2.89,8.17a52,52,0,0,0-2.53,7.9,29.72,29.72,0,0,0-.57,7.89c.27,5.18,1.43,10,2.28,14.57a53.86,53.86,0,0,1,1.24,12.84,23.68,23.68,0,0,1-.9,5.58,13.26,13.26,0,0,1-2.51,4.37,20.75,20.75,0,0,1-6.31,5,20.17,20.17,0,0,1-4.75,1.79A12,12,0,0,1,418.28,349.07Z" transform="translate(-5.56 -5.19)"/><path class="e" d="M232.09,384.8l48-22.79s18.69-90.74,22.22-97.56,18.31-12.7,18.31-12.7l-2.47,122.88L313.75,403l-67.68,6.41Z" transform="translate(-5.56 -5.19)"/><path class="h" d="M191.14,406.3c-.26,0-1.6.83-.48,2.93s9.24,9.08,11.63,6.65-1.26-5.39-1.26-5.39Z" transform="translate(-5.56 -5.19)"/><path class="h" d="M201.37,410.59s9.81,1.24,13.59,2.67c4.1,1.56,9.1.5,12.46-1.78a35.45,35.45,0,0,0,5.32-4.34l12.52-.2a15,15,0,0,0,2.44-15.51,16.77,16.77,0,0,0-2.87-4.89c-1.49-1.61-3.84-2.91-7.89-3.61l-14.87,3.21s-23-1.65-27.14.29c0,0-5.15,3.05-6.74,4.33-.6.48-2.42,6.35,1.32,9.39,0,0-3.26,2.59-1.5,4.92l.85,1s-2.19,2.84-1.07,4.08,11,7,14.51,5.64.61-4.64-.94-5.24" transform="translate(-5.56 -5.19)"/><path class="i" d="M192,395.09a9.13,9.13,0,0,1,1.22.44c.78.3,1.9.72,3.32,1.17.71.23,1.49.45,2.33.68s1.76.41,2.71.72a5.82,5.82,0,0,1,2.7,1.63A3.33,3.33,0,0,1,205,403a2.59,2.59,0,0,1-1.22,1.31,4.57,4.57,0,0,1-1.64.46,13.58,13.58,0,0,1-3.13-.17,27.59,27.59,0,0,1-5.08-1.32c-1.41-.5-2.52-1-3.29-1.3a7.62,7.62,0,0,1-1.17-.55,8.08,8.08,0,0,1,1.23.41c.78.28,1.91.71,3.32,1.17a29.42,29.42,0,0,0,5,1.23,13.55,13.55,0,0,0,3,.14,4.2,4.2,0,0,0,1.49-.42,2.19,2.19,0,0,0,1-1.1A3,3,0,0,0,204,400a5.5,5.5,0,0,0-2.51-1.53c-.92-.31-1.84-.5-2.68-.75s-1.63-.49-2.33-.73c-1.41-.49-2.53-1-3.29-1.29A6.87,6.87,0,0,1,192,395.09Z" transform="translate(-5.56 -5.19)"/><path class="i" d="M192.87,388a8.74,8.74,0,0,1,1.21.44c.77.3,1.89.73,3.3,1.19s3.09,1,5,1.43a6.84,6.84,0,0,1,2.91,1.18,2.48,2.48,0,0,1,.85,1.51,3.13,3.13,0,0,1-.25,1.75,4.21,4.21,0,0,1-2.57,2.19,6.79,6.79,0,0,1-3.13.25,30.07,30.07,0,0,1-5-1.46l-3.32-1.16a7.77,7.77,0,0,1-1.2-.48,7.79,7.79,0,0,1,1.25.33l3.36,1a32.56,32.56,0,0,0,5,1.36,6.47,6.47,0,0,0,2.95-.25,3.83,3.83,0,0,0,2.32-2,2.32,2.32,0,0,0-.49-2.79,6.6,6.6,0,0,0-2.74-1.11,51.73,51.73,0,0,1-5-1.52c-1.4-.51-2.51-1-3.26-1.32A7,7,0,0,1,192.87,388Z" transform="translate(-5.56 -5.19)"/><path class="i" d="M197.6,390a74,74,0,0,0-.94-3.93,4.89,4.89,0,0,1,.94,3.93Z" transform="translate(-5.56 -5.19)"/><path class="h" d="M232.23,390.32l-8.75-3.37s-24.29-11.34-24.7-10.72-1.73.55-1.44,3.51,14.44,8.93,14.89,10-.3,6.21,4.93,9.93,9,3.8,9,3.8" transform="translate(-5.56 -5.19)"/><path class="i" d="M226.16,403.42H226c-.14,0-.34,0-.61-.06a13.6,13.6,0,0,1-2.27-.55,22,22,0,0,1-7.42-4.27,10.53,10.53,0,0,1-3-5.11,23.87,23.87,0,0,1-.52-3.27,1.86,1.86,0,0,0-.09-.38.71.71,0,0,0-.23-.23,8.08,8.08,0,0,0-.71-.46c-.5-.29-1-.57-1.54-.86-2.11-1.12-4.35-2.26-6.61-3.56-1.13-.65-2.27-1.34-3.37-2.13a12.82,12.82,0,0,1-1.58-1.32,4.36,4.36,0,0,1-.67-.84,1.84,1.84,0,0,1-.2-.55,4.26,4.26,0,0,1-.05-.54,3.84,3.84,0,0,1,.37-2.11,2.5,2.5,0,0,1,.77-.77,1.49,1.49,0,0,0,.34-.29s0,0,.08-.08a.26.26,0,0,1,.17-.05.8.8,0,0,1,.17,0l.26.06c1.32.41,2.52.93,3.73,1.43,2.4,1,4.69,2,6.88,3,4.36,2,8.27,3.78,11.54,5.31.82.38,1.6.77,2.34,1.08l2.14.84,3.42,1.36,2.16.87.56.24.19.09-.2-.05-.57-.2-2.19-.8L225.82,388l-2.15-.81c-.76-.31-1.53-.69-2.36-1.06l-11.58-5.23c-2.18-1-4.48-2-6.88-3-1.2-.49-2.43-1-3.68-1.41l-.23-.05h-.08s0,0,0,0,0-.06,0-.1l0,0c.28.19.07.06.13.11l0,0a1.84,1.84,0,0,1-.42.38,2.09,2.09,0,0,0-.66.65,3.48,3.48,0,0,0-.32,1.88,1.81,1.81,0,0,0,.2.9,4,4,0,0,0,.6.76,12.5,12.5,0,0,0,1.53,1.28c1.08.77,2.21,1.46,3.33,2.11,2.25,1.3,4.48,2.44,6.59,3.57.53.29,1,.57,1.55.87a8.37,8.37,0,0,1,.74.49,1,1,0,0,1,.34.39,2.16,2.16,0,0,1,.11.45,23.93,23.93,0,0,0,.49,3.24,10.27,10.27,0,0,0,2.85,5,20.17,20.17,0,0,0,3.94,2.8,20.93,20.93,0,0,0,3.33,1.53,15.67,15.67,0,0,0,2.23.61l.6.1Z" transform="translate(-5.56 -5.19)"/><path class="i" d="M199.37,404.56a3,3,0,0,1,.93.27,9.18,9.18,0,0,1,2.29,1.32,8.3,8.3,0,0,1,1.32,1.28,2.78,2.78,0,0,1,.71,2,2.27,2.27,0,0,1-1.62,1.75,4.37,4.37,0,0,1-2.55-.08,46.75,46.75,0,0,1-8.05-3.23,25.84,25.84,0,0,1-2.26-1.34,4,4,0,0,1-.77-.58,4.84,4.84,0,0,1,.85.45c.54.3,1.32.73,2.31,1.22a56,56,0,0,0,8,3.1,4,4,0,0,0,2.31.09,1.89,1.89,0,0,0,1.37-1.42,2.47,2.47,0,0,0-.6-1.78,8.41,8.41,0,0,0-1.24-1.27A13.79,13.79,0,0,0,199.37,404.56Z" transform="translate(-5.56 -5.19)"/><g class="j"><path d="M313.41,403c-7.86-26.51-14.79-60.65-22.65-87.16-2.87,24.47.72,56.78,5.23,81,.53,2.84.77,5.62,3,7.49L313.41,403" transform="translate(-5.56 -5.19)"/></g><path class="f" d="M300.54,384.8c-.11,0-.44-1.73-1.5-4.38a30.69,30.69,0,0,0-2.25-4.46,30.88,30.88,0,0,0-8.28-8.91,30.69,30.69,0,0,0-4.28-2.58c-2.56-1.26-4.29-1.72-4.25-1.82a5.74,5.74,0,0,1,1.22.29,11.43,11.43,0,0,1,1.39.46,18.94,18.94,0,0,1,1.8.74,28,28,0,0,1,4.4,2.52,29.44,29.44,0,0,1,8.41,9.06,28,28,0,0,1,2.19,4.57,19,19,0,0,1,.61,1.85,11.44,11.44,0,0,1,.36,1.42A5.73,5.73,0,0,1,300.54,384.8Z" transform="translate(-5.56 -5.19)"/><path class="e" d="M315.53,250.51S290.39,306.66,290.39,317s18.84,81.94,18.84,81.94c-.18,2.84-.91,17.12-.91,17.12l105.59.36h0l1.61-22.7-8.24-21.63,8.23-61.14s5.54-35.5,6-45.43c.62-12.42-41.47-26.82-40.32-28.54L374,227.21,332.32,261l-8.22-23.76-9.86,9.32Z" transform="translate(-5.56 -5.19)"/><path class="e" d="M384.67,265.45C373.24,284.78,352.33,320,352.33,320l-37.48,42.73s-2.45,21.72,2.45,28.37,13.31,11.21,13.31,11.21,9.9,0,22.46-10.51,47.24-53.94,47.24-53.94l11.91-14.36s14.2-34.88,11.55-52.64c-1-6.85-3.94-9.69-7.82-12.83C406.18,250.17,391.06,254.64,384.67,265.45Z" transform="translate(-5.56 -5.19)"/><path class="f" d="M416.63,311.4a2.66,2.66,0,0,1-.17.4l-.55,1.14c-.5,1-1.26,2.45-2.3,4.29-2.07,3.69-5.28,8.91-9.49,15.19-2.11,3.14-4.46,6.55-7,10.17s-5.53,7.35-8,11.71-4.62,9.12-7.27,13.89a87.07,87.07,0,0,1-9.52,13.91,55.71,55.71,0,0,1-12.63,11.16,39.71,39.71,0,0,1-14.62,5.66,32.87,32.87,0,0,1-14.16-.6,27,27,0,0,1-6-2.43,27.33,27.33,0,0,1-4.93-3.34,23,23,0,0,1-6.18-8.09,26.12,26.12,0,0,1-2-7.44,33.37,33.37,0,0,1-.17-4.87l.07-1.27a2.63,2.63,0,0,1,0-.43,2.67,2.67,0,0,1,0,.43l0,1.26A36.86,36.86,0,0,0,312,377a26.35,26.35,0,0,0,2.08,7.35,22.85,22.85,0,0,0,6.16,7.93,27.09,27.09,0,0,0,4.89,3.27A26.71,26.71,0,0,0,331,397.9a32.53,32.53,0,0,0,14,.54,39.35,39.35,0,0,0,14.42-5.62,55.42,55.42,0,0,0,12.5-11.07,87.14,87.14,0,0,0,9.48-13.82c2.65-4.73,4.79-9.54,7.3-13.88s5.46-8.11,8-11.72,5-7,7.09-10.12c4.24-6.25,7.5-11.43,9.62-15.08,1.07-1.82,1.86-3.26,2.38-4.24l.6-1.11A2.64,2.64,0,0,1,416.63,311.4Z" transform="translate(-5.56 -5.19)"/><path class="f" d="M313,360.83c0,.08-.53.4-1.22,1.17a6.06,6.06,0,0,0-.68,7.37c.54.88,1,1.31,1,1.37s-.64-.29-1.29-1.17a5.91,5.91,0,0,1,.72-7.83A3,3,0,0,1,313,360.83Z" transform="translate(-5.56 -5.19)"/><path class="f" d="M319.86,372.17a2.65,2.65,0,0,1,.59.14c.19,0,.42.13.7.19l1,.18a13.88,13.88,0,0,0,6.18-.57,22.81,22.81,0,0,0,8-4.68,60.53,60.53,0,0,0,7.46-8.65,52.27,52.27,0,0,1,7.68-8.59c1.36-1.14,2.69-2.15,3.81-3.24a10.76,10.76,0,0,0,2.5-3.45,6.27,6.27,0,0,0-.58-5.9,4.53,4.53,0,0,0-1.81-1.35,2.36,2.36,0,0,1,.58.17,3.9,3.9,0,0,1,1.38,1.06,6.42,6.42,0,0,1,.76,6.16,11,11,0,0,1-2.54,3.62c-1.12,1.13-2.46,2.16-3.8,3.3a53.59,53.59,0,0,0-7.58,8.54,58.67,58.67,0,0,1-7.55,8.7,22.69,22.69,0,0,1-8.17,4.67,13.51,13.51,0,0,1-6.32.42l-1-.23c-.28-.08-.51-.18-.69-.24A2.59,2.59,0,0,1,319.86,372.17Z" transform="translate(-5.56 -5.19)"/><path class="f" d="M389.76,259.51a3.9,3.9,0,0,1-.42.6l-1.28,1.67c-1.14,1.42-2.71,3.54-4.62,6.18a202.74,202.74,0,0,0-13.34,21.67c-4.71,8.76-8.62,16.89-11.61,22.69-1.49,2.91-2.71,5.25-3.59,6.85l-1,1.84a3.87,3.87,0,0,1-.39.62,3.88,3.88,0,0,1,.29-.67l.93-1.88,3.44-6.92c2.9-5.84,6.75-14,11.48-22.78a183.34,183.34,0,0,1,13.5-21.64c2-2.62,3.57-4.71,4.76-6.09l1.36-1.61A3.87,3.87,0,0,1,389.76,259.51Z" transform="translate(-5.56 -5.19)"/><g class="j"><path d="M311.73,370.44c4.88,2.64,10.23,2.36,15.67,1.29a24.32,24.32,0,0,0,14-8.37,24.37,24.37,0,0,1-6.45,12.78c-3.47,3.38-8.48,5.35-13.25,4.48s-9.57-5.35-10-10.18" transform="translate(-5.56 -5.19)"/></g><g class="j"><path d="M357.83,341.59a21.5,21.5,0,0,1,3,16.12c4.13-6.32,5.1-14.33,4-21.8s-4.15-14.51-7.53-21.27c0,0-3.73,6.29-3.76,7-.18,3.63,1.16,10.48,1.86,14a7.83,7.83,0,0,1,2.27,7.06" transform="translate(-5.56 -5.19)"/></g><g class="j"><path d="M328.25,396.6c9.94,7.75,24.68,8.11,35.56,1.75,10.47-6.13,16.92-17.17,22.9-27.72,9.26-16.34,20.57-36.55,27.19-54.13,0,0-18.55,25.31-24.14,36.22A180.39,180.39,0,0,1,377.1,374a54.59,54.59,0,0,1-47.89,23.33" transform="translate(-5.56 -5.19)"/></g><path class="f" d="M308.31,416a1.14,1.14,0,0,1,0-.31l0-.91.13-3.47L309,398.9V399c-1.8-6-3.9-13.27-6.07-21.13-2.88-10.42-5.31-19.9-6.95-26.79-.82-3.45-1.45-6.24-1.85-8.18l-.46-2.23a4.56,4.56,0,0,1-.12-.79,4.56,4.56,0,0,1,.23.76l.55,2.21,2,8.14c1.73,6.87,4.21,16.32,7.09,26.74,2.17,7.86,4.24,15.14,6,21.15v.07l-.75,12.43-.24,3.46-.08.91A1.14,1.14,0,0,1,308.31,416Z" transform="translate(-5.56 -5.19)"/><path class="f" d="M413.95,257.46c0,.08-1.08-.29-2.81-.72a32.42,32.42,0,0,0-13.83-.41c-1.76.33-2.83.63-2.85.55a2.31,2.31,0,0,1,.72-.32,18.44,18.44,0,0,1,2.06-.6,27.43,27.43,0,0,1,14,.42,18.49,18.49,0,0,1,2,.72C413.71,257.3,414,257.42,413.95,257.46Z" transform="translate(-5.56 -5.19)"/><path class="f" d="M380.5,239a2.46,2.46,0,0,1-.27.52l-.85,1.43c-.75,1.24-1.86,3-3.27,5.18-2.83,4.34-6.88,10.24-11.66,16.53-3.85,5.07-7.58,9.61-10.64,13.18l-.21.25-.14-.3-3.53-7.73-.94-2.15a4.13,4.13,0,0,1-.29-.77,4.14,4.14,0,0,1,.41.72l1,2.1,3.69,7.66-.35,0c3-3.6,6.7-8.16,10.54-13.22,4.78-6.28,8.87-12.14,11.77-16.42l3.41-5.09.93-1.38A2.46,2.46,0,0,1,380.5,239Z" transform="translate(-5.56 -5.19)"/><ellipse class="f" cx="406.09" cy="388.7" rx="11.63" ry="0.26" transform="translate(-30.56 744.29) rotate(-83.67)"/><ellipse class="f" cx="333.36" cy="407.65" rx="0.26" ry="8.79" transform="translate(-46.93 32.48) rotate(-6.09)"/><path class="k" d="M385.84,284.69a1.28,1.28,0,0,0-1.94-.77l-.07.06a1.21,1.21,0,1,0,2,.71Z" transform="translate(-5.56 -5.19)"/><path class="k" d="M375.41,259.28a1.28,1.28,0,0,0-1.94-.77l-.07.06a1.21,1.21,0,1,0,2,.71Z" transform="translate(-5.56 -5.19)"/><path class="k" d="M351.48,279.74a1.28,1.28,0,0,0-1.94-.77l-.07.06a1.21,1.21,0,1,0,2,.71Z" transform="translate(-5.56 -5.19)"/><path class="k" d="M325.62,269.46a1.28,1.28,0,0,0-1.94-.77l-.07.06a1.21,1.21,0,1,0,2,.71Z" transform="translate(-5.56 -5.19)"/><path class="k" d="M321,259.33a1.28,1.28,0,0,0-1.94-.77l-.07.06a1.21,1.21,0,1,0,2,.71Z" transform="translate(-5.56 -5.19)"/><path class="k" d="M323,247.63a1.28,1.28,0,0,0-1.94-.77l-.07.06a1.21,1.21,0,1,0,2,.71Z" transform="translate(-5.56 -5.19)"/><path class="k" d="M308.7,263.73a1.28,1.28,0,0,0-1.94-.77l-.07.06a1.21,1.21,0,1,0,2,.71Z" transform="translate(-5.56 -5.19)"/><path class="k" d="M341.89,268.37a1.28,1.28,0,0,0-1.94-.77l-.07.06a1.21,1.21,0,1,0,2,.71Z" transform="translate(-5.56 -5.19)"/><path class="k" d="M313.79,289.24a1.28,1.28,0,0,0-1.94-.77l-.07.06a1.21,1.21,0,1,0,2,.71Z" transform="translate(-5.56 -5.19)"/><path class="k" d="M288.07,349.26a1.28,1.28,0,0,0-1.94-.77l-.07.06a1.21,1.21,0,1,0,2,.71Z" transform="translate(-5.56 -5.19)"/><path class="k" d="M297.25,314.64a1.28,1.28,0,0,0-1.94-.77l-.07.06a1.21,1.21,0,1,0,2,.71Z" transform="translate(-5.56 -5.19)"/><path class="k" d="M364.89,253.86a1.28,1.28,0,0,0-1.94-.77l-.07.06a1.21,1.21,0,1,0,2,.71Z" transform="translate(-5.56 -5.19)"/><path class="k" d="M397.17,322.79a1.28,1.28,0,0,0-1.94-.77l-.07.06a1.21,1.21,0,1,0,2,.71Z" transform="translate(-5.56 -5.19)"/><path class="k" d="M409.74,263.47a1.28,1.28,0,0,0-1.94-.77l-.07.06a1.21,1.21,0,1,0,2,.71Z" transform="translate(-5.56 -5.19)"/><path class="k" d="M404.81,302.31a1.28,1.28,0,0,0-1.94-.77l-.07.06a1.21,1.21,0,1,0,2,.71Z" transform="translate(-5.56 -5.19)"/><path class="k" d="M376.6,330.36a1.28,1.28,0,0,0-1.94-.77l-.07.06a1.21,1.21,0,1,0,2,.71Z" transform="translate(-5.56 -5.19)"/><path class="k" d="M377.79,307a1.28,1.28,0,0,0-1.94-.77l-.07.06a1.21,1.21,0,1,0,2,.71Z" transform="translate(-5.56 -5.19)"/><path class="k" d="M394.8,263.67a1.28,1.28,0,0,0-1.94-.77l-.07.06a1.21,1.21,0,1,0,2,.71Z" transform="translate(-5.56 -5.19)"/><path class="k" d="M371.9,241a1.28,1.28,0,0,0-1.94-.77l-.07.06a1.21,1.21,0,1,0,2,.71Z" transform="translate(-5.56 -5.19)"/><path class="k" d="M371.06,277.52a1.28,1.28,0,0,0-1.94-.77l-.07.06a1.21,1.21,0,1,0,2,.71Z" transform="translate(-5.56 -5.19)"/><path class="k" d="M341.82,388.77a1.28,1.28,0,0,0-1.94-.77l-.07.06a1.21,1.21,0,1,0,2,.71Z" transform="translate(-5.56 -5.19)"/><path class="k" d="M308.27,370.47a1.28,1.28,0,0,0-1.94-.77l-.07.06a1.21,1.21,0,1,0,2,.71Z" transform="translate(-5.56 -5.19)"/><path class="k" d="M281.14,379.44a1.28,1.28,0,0,0-1.94-.77l-.07.06a1.21,1.21,0,1,0,2,.71Z" transform="translate(-5.56 -5.19)"/><path class="k" d="M278.24,394.89a1.28,1.28,0,0,0-1.94-.77l-.07.06a1.21,1.21,0,1,0,2,.71Z" transform="translate(-5.56 -5.19)"/><path class="k" d="M303.67,400.06a1.28,1.28,0,0,0-1.94-.77l-.07.06a1.21,1.21,0,1,0,2,.71Z" transform="translate(-5.56 -5.19)"/><path class="k" d="M295.17,365.47a1.28,1.28,0,0,0-1.94-.77l-.07.06a1.21,1.21,0,1,0,2,.71Z" transform="translate(-5.56 -5.19)"/><path class="k" d="M326.37,374.26a1.28,1.28,0,0,0-1.94-.77l-.07.06a1.21,1.21,0,1,0,2,.71Z" transform="translate(-5.56 -5.19)"/><path class="k" d="M400.55,365.41a1.28,1.28,0,0,0-1.94-.77l-.07.06a1.21,1.21,0,1,0,2,.71Z" transform="translate(-5.56 -5.19)"/><path class="k" d="M354.65,409.38a1.28,1.28,0,0,0-1.94-.77l-.07.06a1.21,1.21,0,1,0,2,.71Z" transform="translate(-5.56 -5.19)"/><path class="k" d="M374.23,384.9a1.28,1.28,0,0,0-1.94-.77l-.07.06a1.21,1.21,0,1,0,2,.71Z" transform="translate(-5.56 -5.19)"/><path class="k" d="M385.85,404.81a1.28,1.28,0,0,0-1.94-.77l-.07.06a1.21,1.21,0,1,0,2,.71Z" transform="translate(-5.56 -5.19)"/><path class="k" d="M353.5,300.55a1.28,1.28,0,0,0-1.94-.77l-.07.06a1.21,1.21,0,1,0,2,.71Z" transform="translate(-5.56 -5.19)"/><path class="k" d="M379.83,351.38a1.28,1.28,0,0,0-1.94-.77l-.07.06a1.21,1.21,0,1,0,2,.71Z" transform="translate(-5.56 -5.19)"/><path class="k" d="M371.29,370.63a1.28,1.28,0,0,0-1.94-.77l-.07.06a1.21,1.21,0,1,0,2,.71Z" transform="translate(-5.56 -5.19)"/><path class="k" d="M399.36,386.09a1.28,1.28,0,0,0-1.94-.77l-.07.06a1.21,1.21,0,1,0,2,.71Z" transform="translate(-5.56 -5.19)"/><path class="k" d="M322.55,408.42a1.28,1.28,0,0,0-1.94-.77l-.07.06a1.21,1.21,0,1,0,2,.71Z" transform="translate(-5.56 -5.19)"/><path class="k" d="M258.55,402.58a1.28,1.28,0,0,0-1.94-.77l-.07.06a1.21,1.21,0,1,0,2,.71Z" transform="translate(-5.56 -5.19)"/><path class="k" d="M314.91,392.06a1.28,1.28,0,0,0-1.94-.77l-.07.06a1.21,1.21,0,1,0,2,.71Z" transform="translate(-5.56 -5.19)"/><path class="k" d="M260.92,380.63a1.28,1.28,0,0,0-1.94-.77l-.07.06a1.21,1.21,0,1,0,2,.71Z" transform="translate(-5.56 -5.19)"/><path class="k" d="M351.13,344.33a1.28,1.28,0,0,0-1.94-.77l-.07.06a1.21,1.21,0,1,0,2,.71Z" transform="translate(-5.56 -5.19)"/><path class="k" d="M332.25,289.24a1.28,1.28,0,0,0-1.94-.77l-.07.06a1.21,1.21,0,1,0,2,.71Z" transform="translate(-5.56 -5.19)"/><path class="k" d="M327.53,337a1.28,1.28,0,0,0-1.94-.77l-.07.06a1.21,1.21,0,1,0,2,.71Z" transform="translate(-5.56 -5.19)"/><path class="k" d="M319.85,321.43a1.28,1.28,0,0,0-1.94-.77l-.07.06a1.21,1.21,0,1,0,2,.71Z" transform="translate(-5.56 -5.19)"/><path class="k" d="M353.82,370.41a1.28,1.28,0,0,0-1.94-.77l-.07.06a1.21,1.21,0,1,0,2,.71Z" transform="translate(-5.56 -5.19)"/><path class="k" d="M329.88,360.8a1.28,1.28,0,0,0-1.94-.77l-.07.06a1.21,1.21,0,1,0,2,.71Z" transform="translate(-5.56 -5.19)"/><path class="k" d="M340.12,308a1.28,1.28,0,0,0-1.94-.77l-.07.06a1.21,1.21,0,1,0,2,.71Z" transform="translate(-5.56 -5.19)"/><path class="k" d="M303.67,345.4a1.28,1.28,0,0,0-1.94-.77l-.07.06a1.21,1.21,0,1,0,2,.71Z" transform="translate(-5.56 -5.19)"/><path class="k" d="M359.94,328.26a1.28,1.28,0,0,0-1.94-.77l-.07.06a1.21,1.21,0,1,0,2,.71Z" transform="translate(-5.56 -5.19)"/><path class="k" d="M412.12,283.5a1.28,1.28,0,0,0-1.94-.77l-.07.06a1.21,1.21,0,1,0,2,.71Z" transform="translate(-5.56 -5.19)"/><path class="k" d="M390.93,249.61a1.28,1.28,0,0,0-1.94-.77l-.07.06a1.21,1.21,0,1,0,2,.71Z" transform="translate(-5.56 -5.19)"/><path class="k" d="M349.87,253.86a1.28,1.28,0,0,0-1.94-.77l-.07.06a1.21,1.21,0,1,0,2,.71Z" transform="translate(-5.56 -5.19)"/><path class="f" d="M308,132.21c-7.88,5-11,15.51-9.52,21.72.76,3.13,2.18,6.28,1.56,9.43-.54,2.73-2.5,4.91-4,7.27a21.92,21.92,0,0,0,27.39,31.66" transform="translate(-5.56 -5.19)"/><path class="f" d="M303.32,173.2c-19.16-42.14,26.41-63.31,51.28-56.29,23.37,6.6,33.34,18.23,37.18,33.86s3.66,32.57-2.47,47.47c-3,7.34-8.46,14.8-16.35,15.72" transform="translate(-5.56 -5.19)"/><path class="h" d="M325.77,276.11c-.33-20.13-.56-47.79-.57-47.68s-17.31-2.87-20.89-25.45c-1.78-11.23-1.22-29.64-.27-44.69.85-13.55,9.83-30.17,23.33-28.74l42.15,10.65a7.94,7.94,0,0,1,7.11,8.06h0l-2.75,87.18" transform="translate(-5.56 -5.19)"/><path class="f" d="M311.57,172.08a2.88,2.88,0,0,0,2.74,2.94,2.75,2.75,0,0,0,3-2.56,2.88,2.88,0,0,0-2.74-2.94A2.76,2.76,0,0,0,311.57,172.08Z" transform="translate(-5.56 -5.19)"/><path class="f" d="M341.49,172.08a2.88,2.88,0,0,0,2.74,2.94,2.75,2.75,0,0,0,3-2.56,2.88,2.88,0,0,0-2.74-2.94A2.76,2.76,0,0,0,341.49,172.08Z" transform="translate(-5.56 -5.19)"/><path class="f" d="M308.45,166.82c.35.39,2.59-1.16,5.71-1s5.34,1.75,5.7,1.38c.17-.16-.17-.86-1.14-1.61a8,8,0,0,0-4.54-1.57,7.63,7.63,0,0,0-4.56,1.31C308.63,166,308.28,166.64,308.45,166.82Z" transform="translate(-5.56 -5.19)"/><path class="f" d="M338,167.56c.36.38,2.55-1.26,5.66-1.26s5.41,1.54,5.74,1.16c.16-.17-.2-.85-1.2-1.57a7.94,7.94,0,0,0-4.6-1.4,7.64,7.64,0,0,0-4.51,1.48C338.17,166.71,337.85,167.39,338,167.56Z" transform="translate(-5.56 -5.19)"/><path class="f" d="M327.35,191.56c0-.18-1.92-.51-5.06-.91-.8-.08-1.55-.24-1.68-.78a4,4,0,0,1,.53-2.36l2.35-6.06c3.27-8.63,5.63-15.72,5.28-15.85s-3.28,6.76-6.55,15.39l-2.25,6.1a4.6,4.6,0,0,0-.41,3.12,2,2,0,0,0,1.31,1.16,5.4,5.4,0,0,0,1.35.19C325.38,191.72,327.34,191.74,327.35,191.56Z" transform="translate(-5.56 -5.19)"/><path class="i" d="M325.2,228.43a57.44,57.44,0,0,0,30.24-8.07S347.8,236.08,325.2,234Z" transform="translate(-5.56 -5.19)"/><path class="f" d="M337.26,163.13c.31.85,3.42.45,7.07.89s6.61,1.44,7.1.68c.22-.36-.3-1.16-1.49-2a12.39,12.39,0,0,0-10.8-1.19C337.8,162.06,337.13,162.73,337.26,163.13Z" transform="translate(-5.56 -5.19)"/><path class="f" d="M309.17,159c.55.71,2.7,0,5.28-.06s4.77.48,5.27-.26c.22-.36-.12-1.07-1.08-1.74a7.64,7.64,0,0,0-8.5.26C309.23,157.91,308.93,158.64,309.17,159Z" transform="translate(-5.56 -5.19)"/><path class="h" d="M372.74,178c.33-.16,12.09-5.36,12.22,8.16S371.5,197,371.48,196.62,372.74,178,372.74,178Z" transform="translate(-5.56 -5.19)"/><path class="i" d="M375.55,191.46c.06,0,.24.16.64.34a2.36,2.36,0,0,0,1.76,0c1.42-.54,2.6-2.82,2.64-5.26a7.77,7.77,0,0,0-.69-3.37,2.72,2.72,0,0,0-1.79-1.79,1.2,1.2,0,0,0-1.38.66c-.18.38-.09.65-.16.67s-.29-.22-.19-.78a1.5,1.5,0,0,1,.52-.85,1.78,1.78,0,0,1,1.3-.36,3.31,3.31,0,0,1,2.48,2.07,8,8,0,0,1,.85,3.76c-.06,2.72-1.43,5.29-3.38,5.87a2.52,2.52,0,0,1-2.16-.34C375.58,191.79,375.51,191.49,375.55,191.46Z" transform="translate(-5.56 -5.19)"/><path class="f" d="M322.86,122.88c-7.52,3.89-10.62,19.27-7.5,27.15s11.5,11.72,19.77,13.53,16.38,2,24.53-.24c.57,5.48,3.86,11.12,9.18,12.56,7,1.92,14.15-4.54,15.71-11.67s-.78-14.47-3.1-21.4" transform="translate(-5.56 -5.19)"/><path class="f" d="M382.51,171.94s-.34.39-1,1a36.65,36.65,0,0,1-3.12,2.35,19.07,19.07,0,0,1-5.26,2.54,11.38,11.38,0,0,1-7.17-.1,11.13,11.13,0,0,1-5.43-4.69,15.06,15.06,0,0,1-1.95-5.52,20,20,0,0,1-.21-3.92,4.44,4.44,0,0,1,.18-1.43c.15,0,0,2.05.58,5.24a15.39,15.39,0,0,0,2,5.24,10.67,10.67,0,0,0,5.1,4.34,10.93,10.93,0,0,0,6.7.14,20,20,0,0,0,5.15-2.32C380.81,173.08,382.43,171.82,382.51,171.94Z" transform="translate(-5.56 -5.19)"/><path class="i" d="M328.27,200.24a13,13,0,0,0,1.68,3.29,4.37,4.37,0,0,0,3.11,1.8,3.92,3.92,0,0,0,3.32-1.81,6.27,6.27,0,0,0,.92-3.77c-.05-1.19-.6-2.61-1.78-2.75a3,3,0,0,0-1.44.32l-6.22,2.52" transform="translate(-5.56 -5.19)"/><path class="f" d="M330.75,205.36c0-.19,1.4.36,3.32-.41a4.74,4.74,0,0,0,2.51-2.28,5,5,0,0,0,.08-4.07,4.46,4.46,0,0,0-.54-.93c-.25-.26-.2-.25-.47-.21s-.66.26-1,.39l-1,.42c-1.33.54-2.54,1-3.55,1.39-2,.76-3.32,1.16-3.39,1s1.12-.8,3.08-1.74c1-.47,2.15-1,3.46-1.61l1-.45a11.2,11.2,0,0,1,1.14-.47,1.45,1.45,0,0,1,.92,0,1.71,1.71,0,0,1,.69.54,5.34,5.34,0,0,1,.7,1.18,5.83,5.83,0,0,1-.19,5,5.32,5.32,0,0,1-3.16,2.55,5,5,0,0,1-2.69.1C331,205.63,330.73,205.42,330.75,205.36Z" transform="translate(-5.56 -5.19)"/><path class="g" d="M387.9,168.73c-1.39-.1-12.55,1.35-11.67,22.1.82,19.39,14.42,15.12,18.76,7.82C399.1,191.74,401.48,169.68,387.9,168.73Z" transform="translate(-5.56 -5.19)"/><path class="g" d="M394.8,171.18a2.6,2.6,0,0,1-.05-.55l-.07-1.58-.17-5.91-.41-20.36.25.25h-5.76l.26-.27.13,4.83.52,21.11v.18l-.17,0a10.47,10.47,0,0,0-5.93,3.82,14,14,0,0,0-2.37,5,20.77,20.77,0,0,0-.61,3.54c0,.41-.06.73-.07.95a1.43,1.43,0,0,1,0,.33,1.06,1.06,0,0,1,0-.33c0-.22,0-.54,0-1a18.38,18.38,0,0,1,.5-3.6,14,14,0,0,1,2.33-5.16,10.79,10.79,0,0,1,6.11-4l-.17.22-.61-21.11-.13-4.83v-.27h6.27v.25l.22,20.36,0,5.91,0,1.58A2.61,2.61,0,0,1,394.8,171.18Z" transform="translate(-5.56 -5.19)"/><path class="g" d="M387.9,142.78s-5.84-13.67-19.75-20.41a82.62,82.62,0,0,0-16.67-6.18s8.12-1.93,21.25,3.92c6,2.66,12,6.11,16,11.3,2.53,3.29,5.68,9.73,5.67,11.38Z" transform="translate(-5.56 -5.19)"/><path class="k" d="M351.88,308.25a2.25,2.25,0,0,1,.25-.27c.17-.18.43-.43.76-.78a37.48,37.48,0,0,0,2.7-3.2,52.48,52.48,0,0,0,3.65-5.6c1.3-2.27,2.66-4.94,4.13-7.93,2.95-6,6.36-13.22,9.89-21.53,1.77-4.15,3.57-8.56,5.36-13.2l1.35-3.52a20.41,20.41,0,0,1,1.61-3.54,7.31,7.31,0,0,1,2.9-2.76,4.06,4.06,0,0,1,2-.52,2.06,2.06,0,0,1,1.06.39,2.29,2.29,0,0,1,.67.9l0,.07,0,.08a3.52,3.52,0,0,1-.54,1.33,2.08,2.08,0,0,1-1.25.82,4.45,4.45,0,0,1-2.79-.51,4.39,4.39,0,0,1-2.47-4.85,3.91,3.91,0,0,1,1.62-2.44,4.55,4.55,0,0,1,2.84-.81,3.14,3.14,0,0,1,2.62,1.45,1.51,1.51,0,0,1-.1,1.63,2.9,2.9,0,0,1-1.27.93,4.18,4.18,0,0,1-4.79-1.36,3.53,3.53,0,0,1-.65-2.52,4.31,4.31,0,0,1,1-2.36,3.61,3.61,0,0,1,2.25-1.24,2.9,2.9,0,0,1,2.43.84,1.81,1.81,0,0,1,.48,1.28,1.73,1.73,0,0,1-.58,1.23,2.83,2.83,0,0,1-2.45.66,3.09,3.09,0,0,1-1.95-1.57A6.48,6.48,0,0,1,382,237a8.21,8.21,0,0,1,.53-4.66,3.49,3.49,0,0,1,1.7-1.68,3.17,3.17,0,0,1,2.38.08,2.25,2.25,0,0,1,1.46,1.85,2.06,2.06,0,0,1-1.27,2,2.55,2.55,0,0,1-2.3,0,3.13,3.13,0,0,1-1.42-1.75,4.36,4.36,0,0,1-.14-2.19,9.77,9.77,0,0,1,.46-2.08,3.8,3.8,0,0,1,1.21-1.77,4.86,4.86,0,0,1,1.88-.94,2.08,2.08,0,0,1,1.1,0,2.37,2.37,0,0,1,.92.58,2.66,2.66,0,0,1,.59.89,1.46,1.46,0,0,1,0,1.11,1.8,1.8,0,0,1-1.79,1,3.31,3.31,0,0,1-1.88-.63,5.11,5.11,0,0,1-2-3.15,5.32,5.32,0,0,1,.42-3.56,4.14,4.14,0,0,1,1.12-1.37,3.74,3.74,0,0,1,1.6-.69,2.61,2.61,0,0,1,1.7.24,1.79,1.79,0,0,1,.92,1.42,2.5,2.5,0,0,1-1.88,2.4,2.75,2.75,0,0,1-2.72-1,4.39,4.39,0,0,1-1-2.56c-.09-1.82.63-3.35,1-4.79l1.11-3.94,1.56-5.44.42-1.41c.1-.32.16-.48.16-.48s0,.17-.11.49l-.37,1.43-1.46,5.47-1.07,3.95c-.34,1.45-1,3-.93,4.7a4.1,4.1,0,0,0,1,2.38,2.44,2.44,0,0,0,2.4.91,2.17,2.17,0,0,0,1.62-2.05,1.43,1.43,0,0,0-.75-1.13,2.25,2.25,0,0,0-1.46-.19,3.37,3.37,0,0,0-1.43.63,3.77,3.77,0,0,0-1,1.25,4.93,4.93,0,0,0-.37,3.3,4.7,4.7,0,0,0,1.85,2.89,2.89,2.89,0,0,0,1.64.55,1.38,1.38,0,0,0,1.38-.72,1.55,1.55,0,0,0-.53-1.52,1.94,1.94,0,0,0-.74-.47,1.65,1.65,0,0,0-.87,0,3.78,3.78,0,0,0-2.77,2.43,9.33,9.33,0,0,0-.43,2,3.88,3.88,0,0,0,.12,2,2.66,2.66,0,0,0,1.21,1.49,2.07,2.07,0,0,0,1.87,0,1.58,1.58,0,0,0,1-1.49,1.77,1.77,0,0,0-1.18-1.43,2.69,2.69,0,0,0-2-.07,3,3,0,0,0-1.44,1.45,7.74,7.74,0,0,0-.47,4.37,6,6,0,0,0,.67,2.13,2.6,2.6,0,0,0,1.61,1.32,2.33,2.33,0,0,0,2-.53,1.25,1.25,0,0,0,.07-1.79,2.4,2.4,0,0,0-2-.67,3.1,3.1,0,0,0-1.92,1.07,3.45,3.45,0,0,0-.36,4.23,3.66,3.66,0,0,0,4.18,1.18,2.41,2.41,0,0,0,1-.75,1,1,0,0,0,.07-1.08,2.64,2.64,0,0,0-2.2-1.17,3.75,3.75,0,0,0-3.93,2.84,3.87,3.87,0,0,0,2.19,4.28,4,4,0,0,0,2.45.48,2,2,0,0,0,1.4-1.75l0,.15a1.49,1.49,0,0,0-1.3-1,3.58,3.58,0,0,0-1.77.46,6.81,6.81,0,0,0-2.71,2.57,20,20,0,0,0-1.57,3.46l-1.35,3.53c-1.8,4.65-3.62,9.06-5.4,13.2-3.56,8.3-7,15.54-10,21.5-1.49,3-2.87,5.65-4.2,7.92a50.62,50.62,0,0,1-3.73,5.58A26.75,26.75,0,0,1,351.88,308.25Z" transform="translate(-5.56 -5.19)"/><path class="g" d="M400,159a13,13,0,0,0-.91-3.7,14.53,14.53,0,0,0-7.18-7.19,19.27,19.27,0,0,0-6.92-1.69,32.63,32.63,0,0,0-8.21.63c-5.73,1.05-11.75,3.53-18.49,4.54a37.55,37.55,0,0,1-9.9,0,39.91,39.91,0,0,1-8.9-2.41,39.29,39.29,0,0,1-13-8.56,34.88,34.88,0,0,1-6.28-8.4,11.26,11.26,0,0,1-.74-1.47l-.49-1.11-.29-.68a.91.91,0,0,1-.08-.24.94.94,0,0,1,.13.22l.34.66.53,1.08a11.84,11.84,0,0,0,.78,1.44,36.2,36.2,0,0,0,6.36,8.23,39,39,0,0,0,21.67,10.73,37.34,37.34,0,0,0,9.76,0c6.65-1,12.68-3.46,18.48-4.5A32.74,32.74,0,0,1,385,146a19.49,19.49,0,0,1,7,1.79,14.55,14.55,0,0,1,7.21,7.44A10.77,10.77,0,0,1,400,158l0,.74A.91.91,0,0,1,400,159Z" transform="translate(-5.56 -5.19)"/><path class="g" d="M384.93,137.45a3.84,3.84,0,0,1-.72.13c-.47.06-1.17.17-2.06.32-1.78.3-4.34.86-7.48,1.65a79.12,79.12,0,0,1-11.18,2.17,56.21,56.21,0,0,1-13.95-.3,59.08,59.08,0,0,1-13.47-3.62A57.6,57.6,0,0,1,326,132.53c-1.34-.91-2.55-1.75-3.56-2.55s-1.88-1.49-2.54-2.11l-1.52-1.43a3.79,3.79,0,0,1-.51-.52,3.85,3.85,0,0,1,.58.45l1.58,1.35c.68.6,1.58,1.24,2.59,2s2.24,1.59,3.58,2.47a60.33,60.33,0,0,0,23.46,8.67,57.11,57.11,0,0,0,13.82.34,83.47,83.47,0,0,0,11.15-2c3.15-.74,5.73-1.25,7.53-1.49.9-.12,1.6-.2,2.08-.23A3.82,3.82,0,0,1,384.93,137.45Z" transform="translate(-5.56 -5.19)"/><path class="f" d="M386.42,204.45a1.2,1.2,0,0,1-.39-.11,6.16,6.16,0,0,1-1-.54,9.1,9.1,0,0,1-2.93-3.12,15,15,0,0,1-1.8-6.09,44.3,44.3,0,0,1,0-7.76,47.18,47.18,0,0,1,1.28-7.65,21.94,21.94,0,0,1,2.23-5.94,9.16,9.16,0,0,1,2.94-3.1,6.09,6.09,0,0,1,1-.53,1.12,1.12,0,0,1,.39-.11s-.51.23-1.32.8a9.54,9.54,0,0,0-2.74,3.12A22.71,22.71,0,0,0,382,179.3a50,50,0,0,0-1.23,7.58,46.77,46.77,0,0,0,0,7.67,15.1,15.1,0,0,0,1.64,6,9.48,9.48,0,0,0,2.72,3.14C385.91,204.21,386.44,204.4,386.42,204.45Z" transform="translate(-5.56 -5.19)"/><rect class="g" x="328.82" y="202.3" width="16.16" height="6.09" rx="2.85" ry="2.85" transform="translate(-38.8 63.54) rotate(-11.1)"/><path class="g" d="M343.4,202.89,390.85,188a2.24,2.24,0,0,1,2.8,1.45h0a2.24,2.24,0,0,1-1.55,2.84L343.58,205.4Z" transform="translate(-5.56 -5.19)"/><path class="f" d="M378.47,196.34a10.19,10.19,0,0,1,1.57-.55l4.34-1.32c1.82-.56,4.06-1.15,6.42-1.93a4.32,4.32,0,0,0,1.55-1,2.38,2.38,0,0,0,.67-1.65,1.44,1.44,0,0,0-1-1.36,3.65,3.65,0,0,0-2,.06l-14.23,4.58-4.33,1.34a10.18,10.18,0,0,1-1.61.42,10.18,10.18,0,0,1,1.55-.62l4.28-1.5c3.63-1.23,8.61-2.94,14.21-4.73a4.11,4.11,0,0,1,2.28,0,2,2,0,0,1,1.32,1.84,2.87,2.87,0,0,1-.82,2A4.77,4.77,0,0,1,391,193c-2.45.78-4.64,1.31-6.49,1.84L380.1,196A10.18,10.18,0,0,1,378.47,196.34Z" transform="translate(-5.56 -5.19)"/><path class="f" d="M300.89,160c1.62,5.7-4.17,10.59-6.21,16.16-2,5.38-.29,11.41,2.14,16.61s5.63,10.12,6.87,15.72c3.07,13.8-9.41,28.67-7,42.6.87,5.08,2.91,10.37,4.68,15.21a20.11,20.11,0,0,1,0,14.13c-2.7,8-7.28,11.74-10.5,19.53-1.65,4-1.52,8.44-1.44,12.74s.05,8.8-1.86,12.66-6.3,6.84-10.46,5.72a15.34,15.34,0,0,0,18.32,3.49c5.47-2.92,8.53-8.84,11.15-14.46,12.68-27.21,19.39-29.51,19-59.53,0-1.93-.38-32-.38-32a29.68,29.68,0,0,1-7.49-3.16c-14.17-9.78-14.68-27.2-14.57-40.7" transform="translate(-5.56 -5.19)"/><path class="h" d="M329.23,251.08v11.33s-8.71,44.45-11.33,69.14-3.06,31.21-3.06,31.21,6.25,9.75,19.32-6.81,15.4-19.17,20.62-19.46c0,0-6.39-69.43-6.1-72a10.51,10.51,0,0,1,2.32-4.94Z" transform="translate(-5.56 -5.19)"/><path class="h" d="M346.37,225.52S332.14,244.4,331,247s-1.74,4.07-1.74,4.07L351,259.51l21.21-23.24,7.84-20.62-2.32-24.4s-4.65-.29-5.52,3.78a30.8,30.8,0,0,0-.58,7.84l-6.51-5.23-10.49-3.2s-2.47,4.07,1.6,6.1,5.23,2,5.23,2l3.66,6.39-1.6,7.16-7.41-7a4.25,4.25,0,0,0-5.41-.34l-4.79,3.48-4.49-2L332.72,218l-3.49,3.2s2.32,4.36,7,2.32l4.65-2Z" transform="translate(-5.56 -5.19)"/><path class="i" d="M329.23,254.91a5.67,5.67,0,0,1,0-.6c0-.4,0-1,.14-1.77a21.13,21.13,0,0,1,.55-2.85,12.71,12.71,0,0,1,1.53-3.66c3.26-5,8.39-12,14.78-20.61l0,.26-5.53-4.06.2,0-2.87,1.26a19.25,19.25,0,0,1-3.06,1.19,5,5,0,0,1-3.4-.39,6.28,6.28,0,0,1-2.56-2.44l-.09-.14.13-.12c3.75-3.52,7.91-7.07,12.19-10.87l.13-.11.15.09,3.87,2.28h-.26l4.53-3c.78-.5,1.5-1,2.35-1.52a2.82,2.82,0,0,1,2.91.26l8.82,7.45-.42.14,1.52-6.84,0,.18-3.66-6.39.23.13a7.81,7.81,0,0,1-1.81-.49c-.57-.21-1.14-.45-1.71-.7s-1.13-.53-1.7-.8c-.28-.14-.57-.32-.85-.49a5.15,5.15,0,0,1-.75-.66,3.7,3.7,0,0,1-1-2.67,5.88,5.88,0,0,1,.77-2.72l.1-.18.2.06,10.48,3.2h0l0,0,6.51,5.23-.41.22a30.89,30.89,0,0,1,.55-7.73,4.69,4.69,0,0,1,2.12-3.22,6.73,6.73,0,0,1,3.7-.93H378l0,.22,2.3,24.4v.05l0,0-7.88,20.61v0l0,0-16.47,17.92-4.47,4.82-1.17,1.24c-.26.28-.41.41-.41.41s.12-.16.37-.45l1.13-1.28,4.4-4.89,16.35-18,0,.06,7.81-20.64v.1l-2.35-24.4.23.22a6.26,6.26,0,0,0-3.4.86,4.18,4.18,0,0,0-1.89,2.9,30.46,30.46,0,0,0-.54,7.59l0,.57-.44-.36L365,197.83l.09,0-10.49-3.19.3-.11a5.39,5.39,0,0,0-.7,2.46,3.17,3.17,0,0,0,.87,2.31,4.64,4.64,0,0,0,.67.58c.26.15.51.31.79.45.56.28,1.12.55,1.68.79a14.54,14.54,0,0,0,3.3,1.15l.17,0,.06.11,3.66,6.39,0,.09,0,.1-1.53,6.84-.09.41-.32-.27-8.78-7.44a2.32,2.32,0,0,0-2.4-.21c-.75.44-1.54,1-2.3,1.48l-4.53,3-.13.08-.13-.08-3.86-2.29.28,0c-4.28,3.79-8.46,7.33-12.21,10.84l0-.26a5.87,5.87,0,0,0,2.36,2.26,4.55,4.55,0,0,0,3.12.36,19.1,19.1,0,0,0,3-1.16l2.88-1.25.1,0,.09.07,5.51,4.08.15.11-.11.15c-6.43,8.62-11.61,15.55-14.9,20.5a12.69,12.69,0,0,0-1.55,3.59,22.17,22.17,0,0,0-.59,2.82c-.11.77-.16,1.36-.19,1.76S329.23,254.91,329.23,254.91Z" transform="translate(-5.56 -5.19)"/><path class="i" d="M356.19,229.89c-.1,0,.28-1.54.44-4a9.07,9.07,0,0,0-.69-4.2,11.08,11.08,0,0,0-3.47-3.9,86.28,86.28,0,0,0-8.06-5.49l-2.55-1.5a4.6,4.6,0,0,1-.92-.59,4.26,4.26,0,0,1,1,.41c.64.3,1.54.76,2.64,1.36a66.08,66.08,0,0,1,8.2,5.4,11.21,11.21,0,0,1,3.59,4.11,9.1,9.1,0,0,1,.62,4.42,19.82,19.82,0,0,1-.49,2.95A4.23,4.23,0,0,1,356.19,229.89Z" transform="translate(-5.56 -5.19)"/><path class="i" d="M371.44,220.83a20.1,20.1,0,0,1,.37-2.61,39.89,39.89,0,0,0-.11-12.61,20.07,20.07,0,0,1-.41-2.61,10,10,0,0,1,.78,2.54,31.08,31.08,0,0,1,.11,12.74A10,10,0,0,1,371.44,220.83Z" transform="translate(-5.56 -5.19)"/><path class="k" d="M274.33,146.74l-10.42-18.37a49.22,49.22,0,1,0-11.79,13.11l0,0Z" transform="translate(-5.56 -5.19)"/><path class="f" d="M274.33,146.74l-22.26-5.11-.2,0,.12-.16,0,0,.18.18a50.33,50.33,0,0,1-10.11,6.09,49.29,49.29,0,0,1-13.47,3.84,44.23,44.23,0,0,1-7.78.39c-1.34-.08-2.7-.11-4.07-.22l-4.15-.63a49.56,49.56,0,0,1-30.69-19.71,49,49,0,0,1-8.3-19,50.08,50.08,0,0,1,.58-21.85,48.46,48.46,0,0,1,10.53-20.2l2-2.21c.66-.74,1.45-1.35,2.16-2s1.42-1.37,2.23-1.94l2.36-1.76a20.75,20.75,0,0,1,2.44-1.61l2.49-1.51L201,58a22.91,22.91,0,0,1,2.63-1.17,50.11,50.11,0,0,1,22-3.38,48.46,48.46,0,0,1,20.21,6A49.84,49.84,0,0,1,269.2,88.08a53.1,53.1,0,0,1,2.14,16,48.87,48.87,0,0,1-2.4,13.8A49.83,49.83,0,0,1,264,128.43v-.13l10.32,18.43L263.8,128.43l0-.06,0-.06a49.88,49.88,0,0,0,4.84-10.54A48.71,48.71,0,0,0,271,104a52.85,52.85,0,0,0-2.17-15.85,49.47,49.47,0,0,0-23.16-28.39,48,48,0,0,0-20-5.89,49.65,49.65,0,0,0-21.79,3.36,22.54,22.54,0,0,0-2.61,1.16l-2.58,1.25-2.46,1.5a20.42,20.42,0,0,0-2.41,1.6l-2.33,1.74c-.8.56-1.46,1.29-2.2,1.92s-1.49,1.28-2.14,2l-2,2.18a48,48,0,0,0-10.42,20,49.61,49.61,0,0,0-.59,21.62,48.53,48.53,0,0,0,8.2,18.79,49.19,49.19,0,0,0,30.38,19.58l4.11.63c1.36.12,2.71.15,4,.23a44,44,0,0,0,7.72-.37A49.11,49.11,0,0,0,242,147.38a50.34,50.34,0,0,0,10.08-6l.79-.6-.6.78,0,0-.07-.2Z" transform="translate(-5.56 -5.19)"/><circle class="f" cx="201.85" cy="97.44" r="3.99"/><circle class="f" cx="217.81" cy="97.44" r="3.99"/><circle class="f" cx="239.83" cy="102.63" r="3.99" transform="translate(-24.74 128.48) rotate(-30)"/><path class="f" d="M471,416.14c0,.14-101.66.26-227,.26s-227.06-.12-227.06-.26,101.64-.26,227.06-.26S471,416,471,416.14Z" transform="translate(-5.56 -5.19)"/><path class="g" d="M342.49,416.39a26.84,26.84,0,0,1,21.39-12.08c14.61-.5,21.91,12.08,21.91,12.08Z" transform="translate(-5.56 -5.19)"/><path class="f" d="M370.48,416a18.57,18.57,0,0,1-.43-2.18,14,14,0,0,0-5.79-8.52,18.58,18.58,0,0,1-1.87-1.2,5.08,5.08,0,0,1,2.11.82,12.4,12.4,0,0,1,6,8.82A5.08,5.08,0,0,1,370.48,416Z" transform="translate(-5.56 -5.19)"/><path class="g" d="M333.44,415.86v-.09a5.61,5.61,0,0,0-5.61-5.52H203.49a5.61,5.61,0,0,0-5.61,5.61H333.44Z" transform="translate(-5.56 -5.19)"/><path class="f" d="M95.4,198c0,2.62,2,158.78,2,158.78l116,27.91h9.59l-6.1-218h-8.72Z" transform="translate(-5.56 -5.19)"/><path class="f" d="M119.93,350.29,84,416.17h32.86c-5.88-.59,52,0,52,0l-52-13.8,16.27-37-1.39-15.14Z" transform="translate(-5.56 -5.19)"/><polygon class="f" points="115.17 357.26 111.28 234.47 146.6 231.08 150.95 362.19 138.34 362.83 115.17 357.26"/><path class="g" d="M161.45,372.24s0-.19,0-.57l0-1.68,0-6.52c0-5.71,0-14-.07-24.42,0-20.87-.06-50.24-.09-84.3l.25.25H119.78l.26-.26c0,1.79,0,3.73,0,5.67,0,33.21,0,64.13,0,89.88v.06l0,0L93.9,398.19,86.6,411.5,84.67,415c-.44.79-.68,1.19-.68,1.19s.2-.42.62-1.22l1.88-3.52,7.19-13.37,25.91-47.88,0,.1c0-25.76,0-56.67,0-89.88,0-1.94,0-3.87,0-5.67v-.26H161.7v.25c0,34.06-.07,63.43-.09,84.3,0,10.42-.06,18.72-.07,24.42,0,2.84,0,5,0,6.52l0,1.68C161.47,372.05,161.45,372.24,161.45,372.24Z" transform="translate(-5.56 -5.19)"/><ellipse class="g" cx="121.7" cy="391.15" rx="28.14" ry="0.26" transform="translate(-290.76 338.61) rotate(-66.08)"/><path class="g" d="M213.35,384.73s0-.19,0-.56l0-1.65-.08-6.34c0-5.5-.17-13.47-.36-23.31-.37-19.68-1.26-46.85-2.35-76.86s-1.92-57.2-2.2-76.89c-.15-9.84-.21-17.81-.19-23.31l0-6.34,0-1.65c0-.37,0-.56,0-.56s0,.19,0,.56l0,1.65.08,6.34c0,5.5.17,13.47.36,23.3C209,218.8,209.93,246,211,276s1.92,57.19,2.2,76.87c.15,9.84.21,17.81.19,23.31l0,6.34,0,1.65C213.37,384.54,213.35,384.73,213.35,384.73Z" transform="translate(-5.56 -5.19)"/><path class="g" d="M155.12,253.83c.14,0,.26,26.12.26,58.33s-.12,58.33-.26,58.33-.26-26.11-.26-58.33S155,253.83,155.12,253.83Z" transform="translate(-5.56 -5.19)"/><path class="g" d="M92.63,405.89a5.24,5.24,0,0,1-.5-.7l-.57-.87a9.67,9.67,0,0,1-.72-1.22,30.63,30.63,0,0,1-3.17-8.45A41.58,41.58,0,0,1,87,381.29a53.2,53.2,0,0,1,4.33-15.8,32.78,32.78,0,0,1,4.53-7.21,19.11,19.11,0,0,1,1.32-1.56c.46-.5.9-1,1.36-1.47,1-.91,1.87-1.84,2.86-2.63a46.38,46.38,0,0,1,5.81-4.21c1-.54,1.91-1.11,2.85-1.57s1.83-.92,2.73-1.25a31.38,31.38,0,0,1,8.72-2.32,18.06,18.06,0,0,1,2.45-.15,5.22,5.22,0,0,1,.86,0,5.31,5.31,0,0,1-.85.1,22.62,22.62,0,0,0-2.43.25,32.87,32.87,0,0,0-8.6,2.46c-.89.33-1.75.83-2.69,1.26s-1.84,1-2.81,1.58a46.85,46.85,0,0,0-5.72,4.21c-1,.79-1.87,1.71-2.82,2.62-.45.47-.89,1-1.34,1.46a18.84,18.84,0,0,0-1.3,1.55,32.58,32.58,0,0,0-4.46,7.11,53.61,53.61,0,0,0-4.33,15.64,42.06,42.06,0,0,0,.5,13.24A32,32,0,0,0,91,403a10.3,10.3,0,0,0,.67,1.24l.53.89A5.3,5.3,0,0,1,92.63,405.89Z" transform="translate(-5.56 -5.19)"/></svg>