<svg xmlns="http://www.w3.org/2000/svg" viewBox="0 0 49.18 11.35"><defs><style>.a{fill:#53f;}.b{fill:#090528;}</style></defs><title>dds</title><path class="a" d="M11.54.59H5.46a2.74,2.74,0,0,0-2.57,1.8H1.66a1.07,1.07,0,0,0-.54.15,1.1,1.1,0,0,0-.4.4,1,1,0,0,0-.14.53V8.14a1,1,0,0,0,.14.54,1.08,1.08,0,0,0,.4.39,1,1,0,0,0,.54.15H3.89v2.71L6.6,9.22H9.51A1,1,0,0,0,10,9.07a1,1,0,0,0,.4-.39,1.06,1.06,0,0,0,.15-.54V7.56h1a.78.78,0,0,0,.79-.78V1.38A.79.79,0,0,0,11.54.59ZM9.87,7.94a.55.55,0,0,1-.55.55H6.57L4.41,10.59V8.49H1.85a.55.55,0,0,1-.55-.55V3.64a.56.56,0,0,1,.55-.55H9.32a.55.55,0,0,1,.55.55Zm1.75-1.47a.38.38,0,0,1-.38.37h-.65V3.46a1,1,0,0,0-.15-.53,1,1,0,0,0-.4-.4,1.06,1.06,0,0,0-.54-.15H3.7A2.12,2.12,0,0,1,5.55,1.3h5.69a.38.38,0,0,1,.38.37Z" transform="translate(-0.58 -0.59)"/><path class="a" d="M4.45,7.54a.12.12,0,0,1,0-.09V4.11a.13.13,0,0,1,0-.09.12.12,0,0,1,.09,0H5.79q1.52,0,1.55,1.4c0,.2,0,.33,0,.4s0,.2,0,.4A1.44,1.44,0,0,1,7,7.24a1.62,1.62,0,0,1-1.13.34H4.54A.12.12,0,0,1,4.45,7.54ZM5.79,7a.85.85,0,0,0,.62-.19.9.9,0,0,0,.2-.63c0-.21,0-.33,0-.39s0-.18,0-.38a.87.87,0,0,0-.21-.62.87.87,0,0,0-.63-.2H5.14V7Z" transform="translate(-0.58 -0.59)"/><path class="b" d="M15.43,8.38a.19.19,0,0,1-.06-.14V2.82a.21.21,0,0,1,.05-.15.19.19,0,0,1,.15-.06h2q2.45,0,2.51,2.26,0,.48,0,.65t0,.64a2.34,2.34,0,0,1-.63,1.72,2.62,2.62,0,0,1-1.84.55H15.57A.19.19,0,0,1,15.43,8.38Zm2.17-.91a1.37,1.37,0,0,0,1-.31,1.46,1.46,0,0,0,.32-1q0-.5,0-.62t0-.62a1.41,1.41,0,0,0-.34-1,1.41,1.41,0,0,0-1-.32h-1v3.9Z" transform="translate(-0.58 -0.59)"/><path class="b" d="M21.35,8a1.94,1.94,0,0,1-.57-1.38V5.91a1.92,1.92,0,0,1,.58-1.38A2.13,2.13,0,0,1,22.86,4a2.11,2.11,0,0,1,1.5.5,1.92,1.92,0,0,1,.58,1.38q0,.1,0,.37c0,.18,0,.3,0,.37A1.94,1.94,0,0,1,24.37,8a2.12,2.12,0,0,1-1.51.5A2.13,2.13,0,0,1,21.35,8Zm2.19-.62a1.27,1.27,0,0,0,.25-.81c0-.06,0-.16,0-.32s0-.27,0-.32a1.27,1.27,0,0,0-.26-.81,1,1,0,0,0-1.36,0,1.27,1.27,0,0,0-.26.81V6.6a1.25,1.25,0,0,0,.26.81.86.86,0,0,0,.68.27A.85.85,0,0,0,23.54,7.4Z" transform="translate(-0.58 -0.59)"/><path class="b" d="M26.1,8a1.93,1.93,0,0,1-.58-1.41V5.94a1.93,1.93,0,0,1,.58-1.41A2.06,2.06,0,0,1,27.56,4a2.41,2.41,0,0,1,1.11.23,1.72,1.72,0,0,1,.67.57,1.32,1.32,0,0,1,.24.65.16.16,0,0,1-.05.14.21.21,0,0,1-.15.06h-.74a.19.19,0,0,1-.13,0,.39.39,0,0,1-.08-.14A1,1,0,0,0,28.1,5a.89.89,0,0,0-.52-.14.84.84,0,0,0-.66.27,1.26,1.26,0,0,0-.25.82v.58q0,1.08.92,1.08a.91.91,0,0,0,.52-.14A1,1,0,0,0,28.43,7a.33.33,0,0,1,.08-.13.2.2,0,0,1,.14,0h.74a.21.21,0,0,1,.15.06.16.16,0,0,1,.05.14,1.33,1.33,0,0,1-.23.63,1.75,1.75,0,0,1-.67.58,2.36,2.36,0,0,1-1.12.24A2.06,2.06,0,0,1,26.1,8Z" transform="translate(-0.58 -0.59)"/><path class="b" d="M30.86,7.93a2.27,2.27,0,0,1-.68-1.65q0-.24,0-.77t0-.77a2.17,2.17,0,0,1,.68-1.62,2.56,2.56,0,0,1,1.78-.59A3.06,3.06,0,0,1,34,2.79a2.15,2.15,0,0,1,.84.65,1.4,1.4,0,0,1,.3.76.17.17,0,0,1-.05.12.18.18,0,0,1-.13.05H34a.2.2,0,0,1-.12,0,.28.28,0,0,1-.07-.11,1.16,1.16,0,0,0-.41-.52,1.3,1.3,0,0,0-.79-.22,1.27,1.27,0,0,0-.91.31,1.33,1.33,0,0,0-.35,1q0,.24,0,.73t0,.73a1.37,1.37,0,0,0,.35,1,1.26,1.26,0,0,0,.92.32,1.38,1.38,0,0,0,.95-.32A1.2,1.2,0,0,0,34,6.29V6h-1a.2.2,0,0,1-.2-.2V5.37a.2.2,0,0,1,.2-.2h2a.2.2,0,0,1,.15.06.19.19,0,0,1,.06.14v.88a2.29,2.29,0,0,1-.31,1.2,2,2,0,0,1-.87.79,3,3,0,0,1-1.32.27A2.53,2.53,0,0,1,30.86,7.93Z" transform="translate(-0.58 -0.59)"/><path class="b" d="M36,8.38a.19.19,0,0,1-.06-.14V4.32A.2.2,0,0,1,36,4.17a.19.19,0,0,1,.14-.06h.68a.2.2,0,0,1,.21.21v.34a1.41,1.41,0,0,1,1.2-.55h.35a.2.2,0,0,1,.15.05.2.2,0,0,1,.05.15v.61a.2.2,0,0,1-.05.14.19.19,0,0,1-.15.06H37.9a.78.78,0,0,0-.84.84V8.24a.2.2,0,0,1-.2.2h-.74A.19.19,0,0,1,36,8.38Z" transform="translate(-0.58 -0.59)"/><path class="b" d="M39.25,3.34a.19.19,0,0,1-.06-.14V2.59a.2.2,0,0,1,.06-.15.19.19,0,0,1,.14-.06h.77a.2.2,0,0,1,.21.21V3.2a.18.18,0,0,1-.06.14.21.21,0,0,1-.15.06h-.77A.19.19,0,0,1,39.25,3.34Zm0,5a.19.19,0,0,1-.06-.14V4.31a.19.19,0,0,1,.06-.15.2.2,0,0,1,.14-.05h.71a.2.2,0,0,1,.2.2V8.24a.2.2,0,0,1-.2.2h-.71A.19.19,0,0,1,39.28,8.38Z" transform="translate(-0.58 -0.59)"/><path class="b" d="M41.56,8a2.34,2.34,0,0,1-.49-1.44V6a2.3,2.3,0,0,1,.49-1.43,1.78,1.78,0,0,1,2.57,0V2.73a.19.19,0,0,1,.06-.15.2.2,0,0,1,.14-.05h.72a.19.19,0,0,1,.2.2V8.24a.2.2,0,0,1-.05.14.19.19,0,0,1-.15.06h-.67a.2.2,0,0,1-.2-.2V7.93A1.8,1.8,0,0,1,41.56,8Zm2.31-.67a1.35,1.35,0,0,0,.25-.75q0-.1,0-.32c0-.15,0-.26,0-.32a1.15,1.15,0,0,0-.26-.71.86.86,0,0,0-.7-.29q-.89,0-.95,1.1v.5q.06,1.1.95,1.1A.82.82,0,0,0,43.87,7.32Z" transform="translate(-0.58 -0.59)"/><path class="b" d="M46.77,8.33a1.67,1.67,0,0,1-.63-.45.75.75,0,0,1-.2-.44A.17.17,0,0,1,46,7.31a.18.18,0,0,1,.13,0h.68a.15.15,0,0,1,.12.07l.19.16a1.1,1.1,0,0,0,.33.2,1.16,1.16,0,0,0,.41.07,1,1,0,0,0,.54-.13.41.41,0,0,0,.21-.37A.39.39,0,0,0,48.5,7a.87.87,0,0,0-.34-.19,6.65,6.65,0,0,0-.74-.2,2.22,2.22,0,0,1-1-.46A1.05,1.05,0,0,1,46,5.32a1.11,1.11,0,0,1,.2-.63,1.44,1.44,0,0,1,.6-.48A2.19,2.19,0,0,1,47.78,4a2.41,2.41,0,0,1,1,.18,1.69,1.69,0,0,1,.62.43.73.73,0,0,1,.21.44.19.19,0,0,1-.18.18h-.62a.17.17,0,0,1-.14-.07L48.45,5a1.08,1.08,0,0,0-.29-.18,1,1,0,0,0-.38-.07.74.74,0,0,0-.47.13.43.43,0,0,0-.17.35.39.39,0,0,0,.08.25.73.73,0,0,0,.32.19,5,5,0,0,0,.72.18q1.5.29,1.5,1.31a1.13,1.13,0,0,1-.51,1,2.42,2.42,0,0,1-1.43.37A2.58,2.58,0,0,1,46.77,8.33Z" transform="translate(-0.58 -0.59)"/></svg>